<svg width="40" height="40" viewBox="0 0 40 40" fill="none" xmlns="http://www.w3.org/2000/svg">
<path d="M21.6666 10C21.6666 10.9204 20.9204 11.6666 20 11.6666C19.0796 11.6666 18.3334 10.9204 18.3334 10C18.3334 9.07959 19.0796 8.33344 20 8.33344C20.9204 8.33344 21.6666 9.07959 21.6666 10Z" fill="white"/>
<path d="M20 31.6666C19.31 31.6666 18.75 31.1066 18.75 30.4166V17.5H17.0834C16.3934 17.5 15.8334 16.94 15.8334 16.25C15.8334 15.56 16.3934 15 17.0834 15H20C20.69 15 21.25 15.56 21.25 16.25V30.4166C21.25 31.1066 20.69 31.6666 20 31.6666Z" fill="white"/>
<path d="M20 40C8.97156 40 0 31.0284 0 20C0 8.97156 8.97156 0 20 0C31.0284 0 40 8.97156 40 20C40 31.0284 31.0284 40 20 40ZM20 2.5C10.35 2.5 2.5 10.35 2.5 20C2.5 29.65 10.35 37.5 20 37.5C29.65 37.5 37.5 29.65 37.5 20C37.5 10.35 29.65 2.5 20 2.5Z" fill="white"/>
<path d="M23.75 31.6666H16.25C15.56 31.6666 15 31.1066 15 30.4166C15 29.7266 15.56 29.1666 16.25 29.1666H23.75C24.44 29.1666 25 29.7266 25 30.4166C25 31.1066 24.44 31.6666 23.75 31.6666Z" fill="white"/>
</svg>
